<?xml version="1.0" encoding="UTF-8"?>
<svg version="1.1" xmlns="http://www.w3.org/2000/svg" width="2000" height="2004">
<path d="M0 0 C660 0 1320 0 2000 0 C2000 661.32 2000 1322.64 2000 2004 C1340 2004 680 2004 0 2004 C0 1342.68 0 681.36 0 0 Z M1001 593 C1000.79503906 593.63808594 1000.59007812 594.27617188 1000.37890625 594.93359375 C1000.10949219 595.75988281 999.84007812 596.58617187 999.5625 597.4375 C999.29566406 598.26121094 999.02882813 599.08492187 998.75390625 599.93359375 C998 602 998 602 997 603 C996.81445263 604.53739248 996.67680798 606.08067583 996.5625 607.625 C996.05250299 613.13296774 995.10482462 617.9671227 992.4375 622.875 C990.82229973 626.38630494 990.5228929 629.22845383 990.30859375 633.046875 C990 635 990 635 988 637 C987.61289619 639.36730201 987.61289619 639.36730201 987.5 642 C987.22222222 646.77777778 987.22222222 646.77777778 985 649 C984.61289619 651.36730201 984.61289619 651.36730201 984.5 654 C984.22222222 658.77777778 984.22222222 658.77777778 982 661 C981.61289619 663.36730201 981.61289619 663.36730201 981.5 666 C981.22222222 670.77777778 981.22222222 670.77777778 979 673 C978.61360546 675.10340456 978.61360546 675.10340456 978.5 677.4375 C978.26931817 680.93809684 978.03849437 681.94225845 976 685 C975.62152955 687.0179789 975.62152955 687.0179789 975.5 689.125 C975.335 690.40375 975.17 691.6825 975 693 C974.01 693.495 974.01 693.495 973 694 C972.60653693 696.71671229 972.60653693 696.71671229 972.5 699.875 C972.22077922 705.66883117 972.22077922 705.66883117 970 709 C969.62117139 710.98394888 969.62117139 710.98394888 969.5 713.0625 C969 717 969 717 967 719 C966.61289619 721.36730201 966.61289619 721.36730201 966.5 724 C966.22222222 728.77777778 966.22222222 728.77777778 964 731 C963.61289619 733.36730201 963.61289619 733.36730201 963.5 736 C963.22222222 740.77777778 963.22222222 740.77777778 961 743 C960.35506558 745.62457325 960.35506558 745.62457325 959.9375 748.5625 C959.09722222 753.90277778 959.09722222 753.90277778 958 755 C957.67169213 756.45052387 957.38819607 757.91126048 957.125 759.375 C954.47731953 773.12713139 954.47731953 773.12713139 951.94140625 778.05859375 C950.91183567 780.18181607 950.64382667 781.84766777 950.4375 784.1875 C950 788 950 788 949 789 C948.75653135 791.22277862 948.61672484 793.44424927 948.4765625 795.67578125 C948 798 948 798 946.47265625 799.93359375 C944.52578754 802.66540688 944.69415979 804.43647417 944.8125 807.75 C944.83957031 808.73484375 944.86664062 809.7196875 944.89453125 810.734375 C944.94673828 811.85585938 944.94673828 811.85585938 945 813 C944.34 813 943.68 813 943 813 C942.87625 813.845625 942.7525 814.69125 942.625 815.5625 C940.88888889 825.11111111 940.88888889 825.11111111 939 827 C938.71710819 829.25415378 938.5522881 831.50840656 938.37890625 833.7734375 C938 836 938 836 936 839 C935.61882364 841.17975304 935.61882364 841.17975304 935.5 843.5 C935.26803665 846.97945019 935.0298919 847.95516215 933 851 C932.6325272 853.57648542 932.49630771 856.12536129 932.34375 858.72265625 C932 861 932 861 930 863 C929.61289619 865.36730201 929.61289619 865.36730201 929.5 868 C929.22222222 872.77777778 929.22222222 872.77777778 927 875 C926.61289619 877.36730201 926.61289619 877.36730201 926.5 880 C926.22222222 884.77777778 926.22222222 884.77777778 924 887 C923.61550947 888.90744816 923.61550947 888.90744816 923.5 891 C923.22222222 894.77777778 923.22222222 894.77777778 921 897 C920.61078869 899.79277311 920.61078869 899.79277311 920.5 902.9375 C920.2214941 908.66775885 920.2214941 908.66775885 918 912 C917.6325272 914.57648542 917.49630771 917.12536129 917.34375 919.72265625 C917 922 917 922 915 924 C914.61360546 926.10340456 914.61360546 926.10340456 914.5 928.4375 C914.26931817 931.93809684 914.03849437 932.94225845 912 936 C911.06380839 941.11068534 910.74340281 946.0031302 913.578125 950.5078125 C915.63940806 952.76578287 917.80477666 954.87312611 920 957 C920.94546951 958.24955294 921.86374892 959.52027163 922.75 960.8125 C925.9199144 965.16353319 929.70607968 968.80580417 933.53271484 972.56860352 C938.73117704 977.68677745 943.54833165 982.94532546 947.8125 988.875 C948.86761253 990.25567693 949.93149479 991.62966141 951 993 C951.63050573 993.84085817 952.26101146 994.68171633 952.91062343 995.54805505 C956.91457947 1000.25108097 960.21338217 1003.44754628 966.56314803 1004.1278821 C970.29148766 1004.31403498 973.99878951 1004.27416067 977.72976685 1004.20254517 C979.42545709 1004.20691068 981.12114071 1004.21567527 982.81678855 1004.22843683 C987.45831099 1004.25072649 992.09751223 1004.21090471 996.73873901 1004.16065621 C1001.75019544 1004.11737717 1006.76152627 1004.13209187 1011.77311707 1004.13967896 C1020.44986998 1004.14491665 1029.12586958 1004.11360456 1037.80243301 1004.05730057 C1050.34707353 1003.97594892 1062.89135065 1003.94997797 1075.43622635 1003.93742065 C1095.7903729 1003.91554693 1116.14411815 1003.84903202 1136.49804688 1003.75439453 C1156.26723221 1003.66257157 1176.03630846 1003.59180346 1195.80566406 1003.54931641 C1197.02471802 1003.54668917 1198.24377198 1003.54406194 1199.49976696 1003.54135509 C1205.61554507 1003.52830449 1211.73132396 1003.51566747 1217.84710336 1003.50323606 C1268.56501288 1003.399608 1319.28248684 1003.22351094 1370 1003 C1365.14184376 993.0705302 1357.8109737 985.57585481 1350 977.953125 C1342.25053418 970.38543677 1342.25053418 970.38543677 1339.859375 965.82421875 C1337.08417704 961.60894959 1333.48458474 958.31741313 1329.875 954.8125 C1328.41188524 953.38373663 1326.95083964 951.9528503 1325.4921875 950.51953125 C1324.84620605 949.89151611 1324.20022461 949.26350098 1323.53466797 948.61645508 C1322 947 1322 947 1321 945 C1320.34 945 1319.68 945 1319 945 C1319 944.34 1319 943.68 1319 943 C1317.84748674 941.84748674 1316.68936651 940.70028234 1315.51123047 939.57397461 C1313.90196363 937.8978933 1312.61585665 936.13906495 1311.2578125 934.25390625 C1304.98114455 926.10436822 1297.23934603 919.16243997 1289.88549805 912.00195312 C1275.99704789 898.45159571 1275.99704789 898.45159571 1272.03759766 891.70996094 C1270.42663601 889.05509615 1268.26897867 887.09444185 1266 885 C1262.73481399 881.81445267 1259.84662282 878.55827852 1257 875 C1255.7625 873.824375 1255.7625 873.824375 1254.5 872.625 C1252.40869275 870.42912739 1251.26725752 868.8538404 1249.875 866.25 C1248.32987952 862.74123224 1248.32987952 862.74123224 1245 862 C1245 861.34 1245 860.68 1245 860 C1243.16666667 857.83333333 1243.16666667 857.83333333 1241 856 C1240.34 856 1239.68 856 1239 856 C1239 855.34 1239 854.68 1239 854 C1236.84985054 851.73362624 1234.64748572 849.57554286 1232.3125 847.5 C1230.58794114 845.52907559 1229.86163591 843.45234835 1229 841 C1228.34 841 1227.68 841 1227 841 C1227 840.34 1227 839.68 1227 839 C1225.16666667 836.83333333 1225.16666667 836.83333333 1223 835 C1222.34 835 1221.68 835 1221 835 C1221 834.34 1221 833.68 1221 833 C1219.16666667 830.83333333 1219.16666667 830.83333333 1217 829 C1216.34 829 1215.68 829 1215 829 C1215 828.34 1215 827.68 1215 827 C1213.51322339 825.53587878 1213.51322339 825.53587878 1211.5625 824 C1207.34126449 820.42357134 1203.7187853 816.48997961 1200.078125 812.33203125 C1198.70935711 810.79602668 1197.28690378 809.30600457 1195.8125 807.87109375 C1193.74140969 805.73305009 1192.93404443 803.80213328 1192 801 C1191.34 801 1190.68 801 1190 801 C1189.67 800.01 1189.34 799.02 1189 798 C1188.34 798 1187.68 798 1187 798 C1186.67 797.01 1186.34 796.02 1186 795 C1185.34 795 1184.68 795 1184 795 C1183.67 794.01 1183.34 793.02 1183 792 C1182.34 792 1181.68 792 1181 792 C1180.58427734 791.13955078 1180.58427734 791.13955078 1180.16015625 790.26171875 C1175.4031709 780.98799983 1168.43450947 774.18413533 1160.95483398 767.06567383 C1159.87117554 766.01996216 1159.87117554 766.01996216 1158.765625 764.953125 C1158.11368164 764.33598633 1157.46173828 763.71884766 1156.79003906 763.08300781 C1155 761 1155 761 1153.69140625 758.19360352 C1151.48096312 754.01998825 1148.54601136 751.2087605 1145.171875 747.94921875 C1144.50464417 747.2909761 1143.83741333 746.63273346 1143.14996338 745.95454407 C1141.02371211 743.8581869 1138.88784317 741.77202977 1136.75 739.6875 C1120.37556793 723.68445064 1120.37556793 723.68445064 1115.43261719 716.94702148 C1109.52903294 708.92366014 1102.17515401 702.1302827 1095.02734375 695.2421875 C1090.24528873 690.54456684 1086.29346299 685.79418041 1082.56396484 680.22753906 C1080.48914362 677.2723925 1078.208227 675.01952731 1075.5625 672.5625 C1072.05986695 669.21635623 1069.03381262 665.83426289 1066.3125 661.8125 C1062.13681697 655.77421976 1057.01817979 650.88598273 1051.79003906 645.77612305 C1047.73847333 641.79734848 1044.01530372 637.82532636 1040.68041992 633.21386719 C1033.77072422 624.11069697 1025.30641368 616.2423641 1017.109375 608.32421875 C1012.67907336 603.9682057 1008.95478234 599.97831983 1006.14160156 594.40283203 C1005.76487305 593.93989746 1005.38814453 593.47696289 1005 593 C1003.68 593 1002.36 593 1001 593 Z M969 619 C968.26563515 620.19269184 967.55698055 621.40159978 966.875 622.625 C964.00759438 627.57779152 959.86724316 631.29027218 955.72021484 635.16845703 C952.96849795 637.79402998 950.74989163 640.18302635 948.94921875 643.55078125 C946.83688814 647.28863281 944.50069864 649.70150289 941.375 652.625 C937.75241407 656.01449729 935.72542114 658.39387575 934 663 C932.265625 664.921875 932.265625 664.921875 930.25 666.75 C926.68521157 670.16679179 924.06995047 673.67076643 921.44140625 677.83203125 C919.6113156 680.58460662 917.49406846 682.98389592 915.30078125 685.44921875 C913.85239153 687.08801603 913.85239153 687.08801603 912.5 689.5625 C911.11428995 691.81427883 909.83586645 693.20226984 907.9375 695 C905.36885416 697.47327532 904.0323114 699.52767985 903 703 C902 706 902 706 900.18774414 706.95605469 C899.46578857 707.30055664 898.74383301 707.64505859 898 708 C894.99144303 710.58847175 892.23720084 713.43848608 889.4375 716.25 C888.66986328 717.00152344 887.90222656 717.75304687 887.11132812 718.52734375 C883.15761372 722.47761115 880.30636994 725.84810871 878 731 C876.17578125 733.046875 876.17578125 733.046875 874.3125 734.75 C873.17369033 735.79685609 872.05989574 736.8733163 871 738 C871 738.66 871 739.32 871 740 C870.1646875 740.3403125 870.1646875 740.3403125 869.3125 740.6875 C863.03074448 744.2528207 859.8037744 749.9680337 856.9375 756.375 C856 758 856 758 853 759 C853 759.66 853 760.32 853 761 C852.34 761 851.68 761 851 761 C848.83333333 762.83333333 848.83333333 762.83333333 847 765 C847 765.66 847 766.32 847 767 C846.34 767 845.68 767 845 767 C843.62228043 768.91301189 842.321644 770.88194153 841.0625 772.875 C837.32697548 778.78201635 837.32697548 778.78201635 834 781 C834 781.66 834 782.32 834 783 C833.34 783 832.68 783 832 783 C829.57199223 785.02020284 828.41318329 786.99828214 827.1875 789.875 C825.17741265 794.12981524 822.68649586 796.15134411 819 799 C819 799.66 819 800.32 819 801 C818.34 801 817.68 801 817 801 C815.47551369 803.9826906 814.06059933 806.818202 813 810 C812.01 810.33 811.02 810.66 810 811 C808.181908 812.75639375 808.181908 812.75639375 806.4375 814.875 C805.83808594 815.57367187 805.23867188 816.27234375 804.62109375 816.9921875 C801.88058572 820.06183605 801.88058572 820.06183605 801.08203125 823.89453125 C802.77230439 827.77137049 806.20695408 830.24195591 809.26171875 833.07421875 C811.49763825 835.29159628 813.1281352 837.64726157 814.8125 840.3046875 C818.06073246 845.3331459 822.00531147 849.31059415 826.3125 853.4375 C827.74814954 854.82991475 829.18184759 856.22434534 830.61328125 857.62109375 C831.24016846 858.2236499 831.86705566 858.82620605 832.51293945 859.44702148 C834 861 834 861 835 863 C835.66 863 836.32 863 837 863 C837.17692383 863.83104248 837.35384766 864.66208496 837.53613281 865.51831055 C839.55208318 870.31308509 842.70433279 873.14585802 846.421875 876.70703125 C847.15948059 877.43186203 847.89708618 878.15669281 848.65704346 878.90348816 C851.01199854 881.21630276 853.37957605 883.51554956 855.75 885.8125 C858.10534335 888.09949202 860.45735365 890.38948871 862.80010986 892.68937683 C864.25510637 894.1174264 865.71721886 895.53827637 867.18768311 896.95039368 C871.31622543 900.99843973 874.57830852 905.11766899 877.68234253 909.99317932 C879.29610078 912.45096786 881.12756167 914.51540504 883.19921875 916.59765625 C884.30040039 917.70463867 884.30040039 917.70463867 885.42382812 918.83398438 C886.17083984 919.56939453 886.91785156 920.30480469 887.6875 921.0625 C888.82541992 922.21782227 888.82541992 922.21782227 889.98632812 923.39648438 C891.08170898 924.48606445 891.08170898 924.48606445 892.19921875 925.59765625 C892.85752686 926.25258057 893.51583496 926.90750488 894.1940918 927.58227539 C896.01063315 929.30874873 896.01063315 929.30874873 899 929 C901.22606953 925.13790347 901.35176181 921.81433075 901.55859375 917.4375 C902.07859205 914.56600494 903.2464509 913.28783359 905 911 C905.49667961 908.88665236 905.49667961 908.88665236 905.5625 906.6875 C906.01356001 901.19358913 906.92043161 893.07956839 911 889 C911.28289181 886.74584622 911.4477119 884.49159344 911.62109375 882.2265625 C912 880 912 880 914 877 C914.38117636 874.82024696 914.38117636 874.82024696 914.5 872.5 C914.73196335 869.02054981 914.9701081 868.04483785 917 865 C917.165 863.845 917.33 862.69 917.5 861.5 C918 858 918 858 920 855 C920.45772063 852.26127045 920.45772063 852.26127045 920.625 849.3125 C920.69976563 848.31863281 920.77453125 847.32476563 920.8515625 846.30078125 C920.92503906 845.16189453 920.92503906 845.16189453 921 844 C921.66 844 922.32 844 923 844 C923.07347656 843.09507812 923.07347656 843.09507812 923.1484375 842.171875 C923.22320313 841.37265625 923.29796875 840.5734375 923.375 839.75 C923.44460938 838.96109375 923.51421875 838.1721875 923.5859375 837.359375 C924 835 924 835 925.0078125 832.9921875 C926.46273886 830.07087867 926.44252437 827.24000822 926.65625 824.0234375 C927 822 927 822 929 820 C929.38449053 818.09255184 929.38449053 818.09255184 929.5 816 C929.77777778 812.22222222 929.77777778 812.22222222 932 810 C932.38710381 807.63269799 932.38710381 807.63269799 932.5 805 C932.77777778 800.22222222 932.77777778 800.22222222 935 798 C935.38752877 795.6667037 935.38752877 795.6667037 935.5 793.0625 C935.71715529 789.37628895 935.88089579 788.17865632 938 785 C938.45772063 782.26127045 938.45772063 782.26127045 938.625 779.3125 C938.69976563 778.31863281 938.77453125 777.32476563 938.8515625 776.30078125 C938.92503906 775.16189453 938.92503906 775.16189453 939 774 C939.66 774 940.32 774 941 774 C941.13277344 773.21753906 941.26554688 772.43507813 941.40234375 771.62890625 C941.57894531 770.61699219 941.75554687 769.60507812 941.9375 768.5625 C942.11152344 767.55316406 942.28554688 766.54382813 942.46484375 765.50390625 C943 763 943 763 944 762 C944.36871088 760.34080104 944.69595322 758.67225729 945 757 C945.88888889 752.11111111 945.88888889 752.11111111 947 751 C947.53329649 748.45899908 947.96418343 745.90665979 948.40234375 743.34765625 C949 741 949 741 951 739 C951.24315656 736.33050591 951.24315656 736.33050591 951.125 733.375 C951.10695313 732.37210938 951.08890625 731.36921875 951.0703125 730.3359375 C951.04710937 729.56507813 951.02390625 728.79421875 951 728 C951.66 728 952.32 728 953 728 C953.12117187 727.22914063 953.24234375 726.45828125 953.3671875 725.6640625 C953.61855469 724.15972656 953.61855469 724.15972656 953.875 722.625 C954.03742188 721.62726563 954.19984375 720.62953125 954.3671875 719.6015625 C955 717 955 717 957 715 C957.24315656 712.33050591 957.24315656 712.33050591 957.125 709.375 C957.10695313 708.37210938 957.08890625 707.36921875 957.0703125 706.3359375 C957.04710937 705.56507813 957.02390625 704.79421875 957 704 C957.66 704 958.32 704 959 704 C959.185625 702.7315625 959.185625 702.7315625 959.375 701.4375 C961.11111111 691.88888889 961.11111111 691.88888889 963 690 C963.28289181 687.74584622 963.4477119 685.49159344 963.62109375 683.2265625 C964 681 964 681 966 678 C966.165 676.824375 966.33 675.64875 966.5 674.4375 C967 671 967 671 969 669 C969.3884495 666.43692162 969.3884495 666.43692162 969.5 663.5625 C969.70556548 659.70300811 969.80291034 658.29563449 972 655 C972.36338849 652.68339835 972.50262118 650.39759253 972.65625 648.05859375 C973 646 973 646 975 644 C975.38752877 641.6667037 975.38752877 641.6667037 975.5 639.0625 C975.71715529 635.37628895 975.88089579 634.17865632 978 631 C978.38117636 628.82024696 978.38117636 628.82024696 978.5 626.5 C978.73196335 623.02054981 978.9701081 622.04483785 981 619 C981.07905064 616.66800612 981.08798769 614.33167378 981 612 C975.20825894 610.77144887 972.35442427 614.88964914 969 619 Z M681 715 C676.46172738 719.12570238 675.74289002 722.96165539 675.34375 728.87890625 C675 731 675 731 673 734 C672.58992103 735.52774519 672.23847459 737.0720723 671.9375 738.625 C671.10060362 742.89939638 671.10060362 742.89939638 670 744 C669.76636119 745.84891946 669.58696365 747.70488031 669.4375 749.5625 C669.35371094 750.57441406 669.26992188 751.58632813 669.18359375 752.62890625 C669.12300781 753.41136719 669.06242188 754.19382812 669 755 C668.34 755 667.68 755 667 755 C666.95101562 755.68707031 666.90203125 756.37414062 666.8515625 757.08203125 C666.77679687 757.98308594 666.70203125 758.88414062 666.625 759.8125 C666.55539062 760.70582031 666.48578125 761.59914063 666.4140625 762.51953125 C666 765 666 765 664 768 C663.5823059 769.86187826 663.23344062 771.73993285 662.9375 773.625 C662.09984399 778.90015601 662.09984399 778.90015601 661 780 C660.46512518 782.50806849 660.03594544 785.02807921 659.59765625 787.5546875 C659 790 659 790 657 793 C656.58256635 795.24645876 656.58256635 795.24645876 656.4375 797.625 C656.09841828 801.90158172 656.09841828 801.90158172 655 803 C654.46329713 805.7692064 654.0351126 808.54945085 653.59765625 811.3359375 C653 814 653 814 651 817 C650.61845057 819.14573931 650.61845057 819.14573931 650.5 821.4375 C650.27046398 824.82889462 649.54835062 826.99402244 648 830 C647.835 831.19625 647.67 832.3925 647.5 833.625 C647 837 647 837 645 839 C644.61289619 841.36730201 644.61289619 841.36730201 644.5 844 C644.22222222 848.77777778 644.22222222 848.77777778 642 851 C641.61289619 853.36730201 641.61289619 853.36730201 641.5 856 C641.22222222 860.77777778 641.22222222 860.77777778 639 863 C638.6115505 865.56307838 638.6115505 865.56307838 638.5 868.4375 C638.29443452 872.29699189 638.19708966 873.70436551 636 877 C635.62117139 878.98394888 635.62117139 878.98394888 635.5 881.0625 C635 885 635 885 633 887 C632.6115505 889.56307838 632.6115505 889.56307838 632.5 892.4375 C632.29443452 896.29699189 632.19708966 897.70436551 630 901 C629.63661151 903.31660165 629.49737882 905.60240747 629.34375 907.94140625 C629 910 629 910 627 912 C626.6115505 914.56307838 626.6115505 914.56307838 626.5 917.4375 C626.29443452 921.29699189 626.19708966 922.70436551 624 926 C623.57935109 928.0290124 623.23158524 930.07381725 622.9375 932.125 C622.09957924 937.90042076 622.09957924 937.90042076 621 939 C620.66905758 940.40800959 620.38656244 941.82746741 620.125 943.25 C619.29958573 947.53843055 618.40031003 951.80265271 617.4375 956.0625 C617.18871094 957.16722656 616.93992187 958.27195312 616.68359375 959.41015625 C616 962 616 962 615 963 C614.46022423 965.7034148 614.03533013 968.41895551 613.59765625 971.140625 C613.00705356 973.96625357 612.11730926 976.34484441 611 979 C609.07509403 984.25810712 608.29217976 989.34767306 607.5625 994.87890625 C607 998 607 998 605 1003 C715.88 1003 826.76 1003 941 1003 C939.00286938 999.00573876 936.59110786 996.01145518 933.6875 992.6875 C930.67620028 989.19865663 927.71013477 985.761172 925.125 981.9375 C922.98352205 978.97722165 920.90535847 977.17901885 918 975 C916.31237149 973.3545622 914.6459651 971.68711423 913 970 C912.175 969.175 911.35 968.35 910.5 967.5 C909.675 966.675 908.85 965.85 908 965 C906.7934375 963.824375 906.7934375 963.824375 905.5625 962.625 C896.67202572 953.51768489 896.67202572 953.51768489 895 948 C894.34 948 893.68 948 893 948 C893 947.34 893 946.68 893 946 C891.01739574 944.31267723 889.0167658 942.64633943 887 941 C886.67 940.34 886.34 939.68 886 939 C885.34 939 884.68 939 884 939 C883.67 938.01 883.34 937.02 883 936 C881.62485459 934.2912354 881.62485459 934.2912354 880 933 C879.34 933 878.68 933 878 933 C877.71769531 932.4225 877.43539063 931.845 877.14453125 931.25 C874.19204491 925.44579477 871.34229044 920.87316057 866 917 C862.48345408 913.66378977 859.37344265 910.11911505 856.33203125 906.35546875 C855.89246094 905.90816406 855.45289063 905.46085938 855 905 C854.34 905 853.68 905 853 905 C853 904.34 853 903.68 853 903 C851.16666667 900.83333333 851.16666667 900.83333333 849 899 C848.34 899 847.68 899 847 899 C847 898.34 847 897.68 847 897 C845.824375 895.8553125 845.824375 895.8553125 844.625 894.6875 C842.09947479 892.10184324 841.06592614 890.39158318 840 887 C839.34 887 838.68 887 838 887 C837.67 886.01 837.34 885.02 837 884 C836.34 884 835.68 884 835 884 C834.7525 883.38125 834.505 882.7625 834.25 882.125 C833.17856271 879.86253506 833.17856271 879.86253506 831 879 C829 878 829 878 828.07421875 876.1328125 C826.91407448 873.82939878 825.70933978 872.6025566 823.8125 870.875 C820.95683605 868.11984596 818.71571555 865.29106282 816.5 862 C813.4784413 857.53927903 810.23811619 853.37707411 806 850 C805.34 850 804.68 850 804 850 C803.72929688 849.40960937 803.45859375 848.81921875 803.1796875 848.2109375 C802.0161144 846.03020115 800.77885829 844.45024257 799.125 842.625 C797.29910515 840.60791197 795.83146573 838.72119021 794.41796875 836.3828125 C790.48637674 830.37496547 784.67350316 825.63919333 779.52929688 820.6953125 C774.64194731 815.91397127 770.60854683 811.17570962 766.82055664 805.49511719 C763.43384855 800.85355131 759.24933419 796.9792888 755.125 793 C753.41722602 791.33542864 751.71139041 789.66886551 750.0078125 788 C749.26160645 787.278125 748.51540039 786.55625 747.74658203 785.8125 C746 784 746 784 745 782 C744.34 782 743.68 782 743 782 C742.814375 781.34 742.62875 780.68 742.4375 780 C737.75138395 770.22027955 727.6123025 762.56848734 719.90014648 755.0715332 C713.5769195 748.91463316 707.94358236 742.85723146 702.89282227 735.57836914 C699.73300869 731.27412676 695.99705088 727.60049195 692.1875 723.875 C691.43791016 723.1221875 690.68832031 722.369375 689.91601562 721.59375 C685.97441905 717.50035208 685.97441905 717.50035208 681 715 Z M655.43115234 732.38598633 C654.517771 733.34927856 654.517771 733.34927856 653.5859375 734.33203125 C652.91103271 735.04311035 652.23612793 735.75418945 651.54077148 736.48681641 C650.82606689 737.25429199 650.1113623 738.02176758 649.375 738.8125 C648.64804932 739.58770996 647.92109863 740.36291992 647.17211914 741.16162109 C642.57551294 746.12593516 638.48428222 751.13804749 634.66015625 756.71875 C632.58856287 759.56536302 630.19018014 761.85388366 627.640625 764.265625 C625.83482141 766.17461737 624.52091309 768.15074287 623.125 770.375 C620.29159706 774.85360464 616.82316212 778.23438075 613.015625 781.890625 C610.91718807 784.08666364 609.6412646 786.33272996 608.296875 789.046875 C605.67712771 792.99227755 601.9049264 796.12917074 598.4609375 799.3515625 C595.92020029 801.75481385 595.92020029 801.75481385 595.07055664 804.42944336 C593.8898156 807.2645682 592.62869404 808.67931499 590.41015625 810.77734375 C589.70826172 811.45603516 589.00636719 812.13472656 588.28320312 812.83398438 C586.80674354 814.23253053 585.33018159 815.63096863 583.85351562 817.02929688 C579.90730635 820.84529209 577.37482456 824.00467937 575 829 C573.10002158 831.03157866 571.21704963 832.92528729 569.1875 834.8125 C564.9740895 838.86053132 561.61550367 842.75890114 558.5703125 847.7734375 C555.92346036 851.52643681 552.52878588 854.5278531 549.171875 857.640625 C546.89507195 859.83157967 546.89507195 859.83157967 546.01171875 862.48828125 C544.29660728 866.74626068 540.72055624 869.3259632 537.41015625 872.40234375 C534.15225425 875.91369679 532.5029847 879.49104589 531 884 C530.34 884 529.68 884 529 884 C527.60287726 885.95597184 526.28072371 887.9659094 525 890 C521.22222222 895.88888889 521.22222222 895.88888889 519 897 C519 897.66 519 898.32 519 899 C518.34 899 517.68 899 517 899 C514.83333333 900.83333333 514.83333333 900.83333333 513 903 C513 903.66 513 904.32 513 905 C512.34 905 511.68 905 511 905 C508.67093266 906.96515057 507.20631608 908.41279269 506.1875 911.3125 C504.66427417 914.75980057 502.43476848 916.72863291 499.73046875 919.3046875 C497.85200361 921.07189075 497.85200361 921.07189075 495.9375 923.625 C494.27723216 925.66016703 492.77864535 927.06552948 490.75 928.6875 C489.8425 929.450625 488.935 930.21375 488 931 C488 931.66 488 932.32 488 933 C487.34 933 486.68 933 486 933 C485.38125 934.36125 485.38125 934.36125 484.75 935.75 C483.10256403 938.80952394 481.46618157 940.61885918 479 943 C479 943.66 479 944.32 479 945 C478.34 945 477.68 945 477 945 C472.61834472 949.12676674 469.10844542 954.16573531 465.5625 959 C462.27992233 963.44934422 458.8294551 967.26621075 454.8359375 971.0703125 C452.29253336 973.74359259 450.45848842 976.73654274 448.49609375 979.84765625 C446.54526455 982.65420166 444.20712655 984.83041999 441.734375 987.171875 C439.19428183 989.8492705 437.3042997 992.85938363 435.359375 995.984375 C434 998 434 998 432.328125 999.640625 C430.76705421 1000.92168054 430.76705421 1000.92168054 431 1003 C451.69647316 1003.04666797 472.39293769 1003.08196327 493.08945274 1003.10362434 C502.69865042 1003.11394814 512.30781546 1003.12802947 521.91699219 1003.15087891 C530.28985605 1003.1707791 538.66269628 1003.18370841 547.03558314 1003.18817699 C551.47121456 1003.1907901 555.90677835 1003.1969548 560.34238815 1003.21146011 C564.51360245 1003.22499085 568.68472097 1003.22923183 572.85595512 1003.22621536 C574.39027488 1003.22676756 575.9245977 1003.23077179 577.45889854 1003.23841095 C579.5471304 1003.24830188 581.63499648 1003.24599063 583.72323608 1003.24050903 C585.47925172 1003.24327441 585.47925172 1003.24327441 587.27074242 1003.24609566 C590.14654872 1003.28061649 590.14654872 1003.28061649 592 1001 C592.63682422 999.06565395 592.63682422 999.06565395 593.0625 996.9375 C593.90277778 993.09722222 593.90277778 993.09722222 595 992 C595.37086181 990.00661779 595.69737711 988.00487668 596 986 C596.88888889 980.11111111 596.88888889 980.11111111 598 979 C598.28289181 976.74584622 598.4477119 974.49159344 598.62109375 972.2265625 C599 970 599 970 601 967 C601.42064891 964.9709876 601.76841476 962.92618275 602.0625 960.875 C602.90042076 955.09957924 602.90042076 955.09957924 604 954 C604.3698855 952.17369035 604.69673464 950.33854626 605 948.5 C605.88888889 943.11111111 605.88888889 943.11111111 607 942 C607.24346865 939.77722138 607.38327516 937.55575073 607.5234375 935.32421875 C608 933 608 933 609.5 931.03125 C611.34890705 928.5275217 611.45222185 926.8906792 611.625 923.8125 C611.91575663 919.08424337 611.91575663 919.08424337 613 918 C613.53548344 914.90409573 613.96573602 911.79878868 614.40234375 908.6875 C614.59957031 907.800625 614.79679688 906.91375 615 906 C615.66 905.67 616.32 905.34 617 905 C617.39258939 902.47907827 617.39258939 902.47907827 617.5 899.5625 C617.77854195 894.22145805 617.77854195 894.22145805 620 892 C620.38710381 889.63269799 620.38710381 889.63269799 620.5 887 C620.77777778 882.22222222 620.77777778 882.22222222 623 880 C623.38752877 877.6667037 623.38752877 877.6667037 623.5 875.0625 C623.71715529 871.37628895 623.88089579 870.17865632 626 867 C626.41007897 865.47225481 626.76152541 863.9279277 627.0625 862.375 C627.89939638 858.10060362 627.89939638 858.10060362 629 857 C629.2253331 854.9720021 629.44767185 852.94325126 629.62109375 850.91015625 C630 849 630 849 632 847 C632.38259821 844.14355654 632.50658238 841.31095376 632.65625 838.43359375 C632.82640625 837.22896484 632.82640625 837.22896484 633 836 C633.66 835.67 634.32 835.34 635 835 C635.39258939 832.47907827 635.39258939 832.47907827 635.5 829.5625 C635.77854195 824.22145805 635.77854195 824.22145805 638 822 C638.38710381 819.63269799 638.38710381 819.63269799 638.5 817 C638.77777778 812.22222222 638.77777778 812.22222222 641 810 C641.38710381 807.63269799 641.38710381 807.63269799 641.5 805 C641.77777778 800.22222222 641.77777778 800.22222222 644 798 C644.64493442 795.37542675 644.64493442 795.37542675 645.0625 792.4375 C645.90277778 787.09722222 645.90277778 787.09722222 647 786 C647.28289181 783.74584622 647.4477119 781.49159344 647.62109375 779.2265625 C648 777 648 777 650 774 C650.41007897 772.47225481 650.76152541 770.9279277 651.0625 769.375 C651.89939638 765.10060362 651.89939638 765.10060362 653 764 C653.15710888 762.56565414 653.27604721 761.12702756 653.375 759.6875 C653.75143746 755.76884776 654.61181818 754.11501977 657 751 C657.04166002 748.6670386 657.04166002 746.3329614 657 744 C657.32613281 743.36578125 657.65226563 742.7315625 657.98828125 742.078125 C659.18444672 739.62113646 659.20481281 737.9636357 659.125 735.25 C659.10695313 734.45078125 659.08890625 733.6515625 659.0703125 732.828125 C659.04710937 732.22484375 659.02390625 731.6215625 659 731 C656.90091418 730.77930649 656.90091418 730.77930649 655.43115234 732.38598633 Z M1344 754 C1343.67 755.32 1343.34 756.64 1343 758 C1342.34 758 1341.68 758 1341 758 C1340.81824219 759.15628906 1340.81824219 759.15628906 1340.6328125 760.3359375 C1340.46523437 761.33882812 1340.29765625 762.34171875 1340.125 763.375 C1339.96257812 764.37273438 1339.80015625 765.37046875 1339.6328125 766.3984375 C1339 769 1339 769 1337 771 C1336.61065133 773.19721471 1336.61065133 773.19721471 1336.5 775.6875 C1336.03389099 781.36258166 1335.23669308 789.76330692 1331 794 C1330.7180604 796.28684338 1330.55222995 798.57363273 1330.37890625 800.87109375 C1330 803 1330 803 1328 805 C1327.61195187 807.59706093 1327.61195187 807.59706093 1327.5 810.5 C1327.22222222 815.77777778 1327.22222222 815.77777778 1325 818 C1324.75712511 820.44012949 1324.75712511 820.44012949 1324.875 823.125 C1324.90207031 824.49011719 1324.90207031 824.49011719 1324.9296875 825.8828125 C1324.95289063 826.58148437 1324.97609375 827.28015625 1325 828 C1323.515 828.495 1323.515 828.495 1322 829 C1321.95101563 829.78246094 1321.90203125 830.56492187 1321.8515625 831.37109375 C1321.77679687 832.38300781 1321.70203125 833.39492188 1321.625 834.4375 C1321.55539062 835.44683594 1321.48578125 836.45617187 1321.4140625 837.49609375 C1321.27742188 838.32238281 1321.14078125 839.14867187 1321 840 C1320.01 840.495 1320.01 840.495 1319 841 C1318.60741061 843.52092173 1318.60741061 843.52092173 1318.5 846.4375 C1318.22145805 851.77854195 1318.22145805 851.77854195 1316 854 C1315.61289619 856.36730201 1315.61289619 856.36730201 1315.5 859 C1315.22222222 863.77777778 1315.22222222 863.77777778 1313 866 C1312.61360546 868.10340456 1312.61360546 868.10340456 1312.5 870.4375 C1312.26931817 873.93809684 1312.03849437 874.94225845 1310 878 C1309.61882364 880.17975304 1309.61882364 880.17975304 1309.5 882.5 C1309.26803665 885.97945019 1309.0298919 886.95516215 1307 890 C1306.61650287 892.34152003 1306.61650287 892.34152003 1306.5 894.875 C1306.27219305 898.02784822 1306.10726504 899.7952213 1304.625 902.625 C1303.84770827 905.57870859 1304.32178117 906.15523344 1305.8125 908.75 C1308.7481125 913.02737445 1312.35963217 916.55369017 1316.109375 920.1171875 C1318 922 1318 922 1319 924 C1319.66 924 1320.32 924 1321 924 C1321.37125 924.804375 1321.37125 924.804375 1321.75 925.625 C1325.40113853 932.56216322 1329.84253842 938.19417633 1336 943 C1338.45524406 945.33832768 1340.68838843 947.57297673 1342.6875 950.3125 C1343.120625 950.869375 1343.55375 951.42625 1344 952 C1344.66 952 1345.32 952 1346 952 C1346.28230469 952.57878906 1346.56460937 953.15757812 1346.85546875 953.75390625 C1349.83775258 959.60651104 1353.145085 964.51854 1358 969 C1358.721875 969.763125 1359.44375 970.52625 1360.1875 971.3125 C1361.83122273 973.22713951 1361.83122273 973.22713951 1364 973 C1364.33 973.99 1364.66 974.98 1365 976 C1366.65788785 977.34423339 1368.32576317 978.67618483 1370 980 C1371.33333333 981.66666667 1372.66666667 983.33333333 1374 985 C1375.65893182 986.34294481 1377.32476605 987.67744688 1379 989 C1379.66 989.99 1380.32 990.98 1381 992 C1381.66 992 1382.32 992 1383 992 C1383.2475 992.515625 1383.495 993.03125 1383.75 993.5625 C1385.39266181 996.76569053 1387.21398476 999.87447333 1389 1003 C1448.4 1003 1507.8 1003 1569 1003 C1567.20449013 999.40898025 1565.99556278 997.79883415 1563.1875 995.125 C1555.02909836 987.14395492 1555.02909836 987.14395492 1552.5 981.875 C1550.77127676 978.56161379 1548.98487817 977.20312437 1546 975 C1544.31237149 973.3545622 1542.6459651 971.68711423 1541 970 C1540.175 969.195625 1539.35 968.39125 1538.5 967.5625 C1535.17000769 964.14925789 1531.99618448 960.7359515 1529.61425781 956.58520508 C1527.91553876 953.86473683 1526.08777586 951.87518878 1523.796875 949.63671875 C1522.98089844 948.83169922 1522.16492187 948.02667969 1521.32421875 947.19726562 C1520.04998047 945.95493164 1520.04998047 945.95493164 1518.75 944.6875 C1510.06089782 936.17970058 1502.29725648 927.60917329 1495.2109375 917.734375 C1493.01410046 915.01743874 1490.78471443 913.08967897 1488 911 C1484.48345408 907.66378977 1481.37344265 904.11911505 1478.33203125 900.35546875 C1477.89246094 899.90816406 1477.45289063 899.46085938 1477 899 C1476.34 899 1475.68 899 1475 899 C1475 898.34 1475 897.68 1475 897 C1473.81568846 895.84952593 1472.62955179 894.70086233 1471.43359375 893.5625 C1469.29610321 891.23281004 1467.79172327 888.59377772 1466.2109375 885.8671875 C1464.96800584 883.95066707 1463.73827661 882.48075415 1462 881 C1461.34 881 1460.68 881 1460 881 C1459.67 880.01 1459.34 879.02 1459 878 C1457.34211215 876.65576661 1455.67423683 875.32381517 1454 874 C1452.64613064 872.34997172 1451.31321858 870.6825613 1450 869 C1449.175 868.21625 1448.35 867.4325 1447.5 866.625 C1445.45748153 864.48035561 1444.31146271 862.96451377 1442.9375 860.4375 C1441.19548855 857.34683452 1439.70678471 855.25565393 1437 853 C1436.34 853 1435.68 853 1435 853 C1434.67 852.01 1434.34 851.02 1434 850 C1432.62485459 848.2912354 1432.62485459 848.2912354 1431 847 C1430.34 847 1429.68 847 1429 847 C1429 846.34 1429 845.68 1429 845 C1427.16666667 842.83333333 1427.16666667 842.83333333 1425 841 C1424.34 841 1423.68 841 1423 841 C1422.74089844 840.44699219 1422.48179688 839.89398437 1422.21484375 839.32421875 C1420.83250549 836.67955231 1419.25197564 834.27223121 1417.5625 831.8125 C1416.96566406 830.93207031 1416.36882812 830.05164063 1415.75390625 829.14453125 C1414.10437646 826.73803619 1414.10437646 826.73803619 1411 826 C1410.3192868 824.67378291 1409.65540744 823.33890377 1409 822 C1407.55233614 820.36867729 1406.04724497 818.78719792 1404.5 817.25 C1403.7059375 816.45078125 1402.911875 815.6515625 1402.09375 814.828125 C1400.21216538 812.78076391 1400.21216538 812.78076391 1398 813 C1397.7525 812.38125 1397.505 811.7625 1397.25 811.125 C1396.17856271 808.86253506 1396.17856271 808.86253506 1394 808 C1391.44484925 806.72242463 1391.24451222 805.52562773 1390 803 C1389.03499141 801.80422848 1388.03362279 800.63698507 1387 799.5 C1384.84180966 797.12599063 1383.33385117 794.92421219 1382 792 C1381.34 792 1380.68 792 1380 792 C1379.75765625 791.42636719 1379.5153125 790.85273437 1379.265625 790.26171875 C1377.31337591 786.77297733 1374.39229329 784.4093898 1371.484375 781.70703125 C1369.38460775 779.41907731 1367.86865482 777.33257928 1366.21484375 774.734375 C1362.95409664 769.71340616 1359.0690925 765.62347622 1354.8125 761.4375 C1354.10158203 760.71498047 1353.39066406 759.99246094 1352.65820312 759.24804688 C1351.97306641 758.56677734 1351.28792969 757.88550781 1350.58203125 757.18359375 C1349.96561768 756.57056396 1349.3492041 755.95753418 1348.71411133 755.32592773 C1346.96569341 753.69407589 1346.96569341 753.69407589 1344 754 Z M1321 771 C1319.99406757 772.1196986 1318.9954151 773.2459412 1318 774.375 C1317.443125 775.00148438 1316.88625 775.62796875 1316.3125 776.2734375 C1314.79827513 777.90389833 1314.79827513 777.90389833 1315 780 C1314.443125 780.20625 1313.88625 780.4125 1313.3125 780.625 C1308.65538625 783.39409466 1305.49505373 788.27252977 1303 793 C1303 793.66 1303 794.32 1303 795 C1302.01 795.33 1301.02 795.66 1300 796 C1300 796.66 1300 797.32 1300 798 C1299.3915625 798.25136719 1298.783125 798.50273438 1298.15625 798.76171875 C1295.6752428 800.18650006 1294.89570347 801.34644285 1293.5 803.8125 C1290.29403863 809.21767267 1286.96614574 813.12398381 1282 817 C1280.31288577 818.6459651 1278.6454378 820.31237149 1277 822 C1276.278125 822.66 1275.55625 823.32 1274.8125 824 C1272.882476 825.88461003 1272.882476 825.88461003 1272.125 828.3125 C1270.35488622 832.54110515 1267.16870324 836.91564838 1263 839 C1263 839.66 1263 840.32 1263 841 C1262.34 841 1261.68 841 1261 841 C1257.47784472 844.7568201 1257.15132059 848.04676684 1257.29589844 853.04882812 C1258.69304765 858.90484051 1263.2825942 862.36055726 1267.625 866.25 C1269.43161991 867.94064573 1271.23635069 869.63331273 1273.0390625 871.328125 C1273.89661133 872.12412109 1274.75416016 872.92011719 1275.63769531 873.74023438 C1279.20207788 877.14990005 1282.85132994 880.66194209 1285.046875 885.13085938 C1286.24012813 887.470907 1287.20041256 887.85200465 1289.625 888.75 C1290.73875 889.1625 1291.8525 889.575 1293 890 C1293.474375 889.030625 1293.94875 888.06125 1294.4375 887.0625 C1296 884 1296 884 1297 883 C1297.20775561 881.33795513 1297.36718255 879.66970509 1297.5 878 C1297.88888889 873.11111111 1297.88888889 873.11111111 1299 872 C1299.23427778 869.98405418 1299.41336124 867.961526 1299.5625 865.9375 C1299.64628906 864.83277344 1299.73007813 863.72804688 1299.81640625 862.58984375 C1299.90728516 861.30787109 1299.90728516 861.30787109 1300 860 C1300.99 859.67 1301.98 859.34 1303 859 C1303.12117188 858.39414062 1303.24234375 857.78828125 1303.3671875 857.1640625 C1303.71935119 855.40324405 1304.07366745 853.64285528 1304.4296875 851.8828125 C1304.80515839 849.98488431 1305.16497032 848.08378021 1305.5078125 846.1796875 C1305.67023438 845.29539062 1305.83265625 844.41109375 1306 843.5 C1306.144375 842.6853125 1306.28875 841.870625 1306.4375 841.03125 C1307 839 1307 839 1309 837 C1309.38710381 834.63269799 1309.38710381 834.63269799 1309.5 832 C1309.77777778 827.22222222 1309.77777778 827.22222222 1312 825 C1312.38710381 822.63269799 1312.38710381 822.63269799 1312.5 820 C1312.77777778 815.22222222 1312.77777778 815.22222222 1315 813 C1315.38710381 810.63269799 1315.38710381 810.63269799 1315.5 808 C1315.77777778 803.22222222 1315.77777778 803.22222222 1318 801 C1318.64276846 798.60543906 1318.64276846 798.60543906 1319.0625 795.9375 C1319.90277778 791.09722222 1319.90277778 791.09722222 1321 790 C1321.2819396 787.71315662 1321.44777005 785.42636727 1321.62109375 783.12890625 C1322 781 1322 781 1324 779 C1324.41666667 776 1324.41666667 776 1324 773 C1323.01 772.34 1322.02 771.68 1321 771 Z " fill="#FEFEFE" transform="translate(0,0)"/>
</svg>
