<?xml version="1.0" encoding="UTF-8"?>
<!DOCTYPE svg PUBLIC "-//W3C//DTD SVG 1.1//EN" "http://www.w3.org/Graphics/SVG/1.1/DTD/svg11.dtd">
<svg xmlns="http://www.w3.org/2000/svg" version="1.1" width="4080px" height="4080px" style="shape-rendering:geometricPrecision; text-rendering:geometricPrecision; image-rendering:optimizeQuality; fill-rule:evenodd; clip-rule:evenodd" xmlns:xlink="http://www.w3.org/1999/xlink">
<g><path style="opacity:1" fill="#fefefe" d="M -0.5,-0.5 C 1359.5,-0.5 2719.5,-0.5 4079.5,-0.5C 4079.5,1359.5 4079.5,2719.5 4079.5,4079.5C 2719.5,4079.5 1359.5,4079.5 -0.5,4079.5C -0.5,2719.5 -0.5,1359.5 -0.5,-0.5 Z M 2124.5,1451.5 C 2126.02,1451.51 2127.18,1452.18 2128,1453.5C 2131.8,1458.59 2136.13,1463.25 2141,1467.5C 2144.26,1473.1 2148.59,1477.76 2154,1481.5C 2154.67,1482.83 2155.33,1484.17 2156,1485.5C 2163.22,1492.94 2170.22,1500.6 2177,1508.5C 2177.68,1509.78 2177.52,1510.95 2176.5,1512C 2184.33,1515.83 2190.17,1521.67 2194,1529.5C 2197.63,1532.13 2200.97,1535.13 2204,1538.5C 2219.64,1557.44 2235.97,1575.77 2253,1593.5C 2255.89,1598.4 2259.56,1602.73 2264,1606.5C 2274.2,1619.38 2285.2,1631.71 2297,1643.5C 2302.23,1650.74 2308.23,1657.4 2315,1663.5C 2316.04,1665.71 2316.71,1668.05 2317,1670.5C 2325.41,1673.96 2331.08,1679.96 2334,1688.5C 2341.32,1694.15 2347.65,1700.82 2353,1708.5C 2366.81,1721.8 2379.31,1736.13 2390.5,1751.5C 2396.57,1755.74 2401.4,1761.07 2405,1767.5C 2413.06,1774.56 2420.06,1782.56 2426,1791.5C 2427.21,1793.05 2428.71,1794.22 2430.5,1795C 2352.83,1795.33 2275.17,1795.67 2197.5,1796C 2179.38,1797.14 2161.22,1797.64 2143,1797.5C 2126.17,1797.33 2109.33,1797.17 2092.5,1797C 2091.17,1796.33 2089.83,1795.67 2088.5,1795C 2073.73,1779.57 2059.73,1763.57 2046.5,1747C 2050.36,1736.42 2053.53,1725.59 2056,1714.5C 2057.76,1713.88 2058.92,1712.71 2059.5,1711C 2059.98,1708.1 2059.98,1705.1 2059.5,1702C 2062.62,1700.28 2063.28,1697.78 2061.5,1694.5C 2064.55,1681.2 2067.88,1668.03 2071.5,1655C 2072.47,1651.15 2073.97,1647.65 2076,1644.5C 2076.65,1642.76 2076.48,1641.1 2075.5,1639.5C 2076.74,1638.72 2077.74,1637.72 2078.5,1636.5C 2079.16,1633.84 2079.16,1631.01 2078.5,1628C 2082.69,1614.08 2086.19,1599.92 2089,1585.5C 2089.61,1582.69 2090.94,1580.36 2093,1578.5C 2093.74,1576.56 2093.58,1574.73 2092.5,1573C 2095.55,1571.42 2096.22,1569.09 2094.5,1566C 2097.99,1564.52 2098.33,1562.52 2095.5,1560C 2099.58,1545.6 2103.42,1531.1 2107,1516.5C 2107.85,1513.4 2109.35,1510.73 2111.5,1508.5C 2112.42,1504.68 2112.42,1500.68 2111.5,1496.5C 2112.5,1496.5 2113.5,1496.5 2114.5,1496.5C 2114.77,1494.55 2114.11,1493.05 2112.5,1492C 2117.32,1478.75 2121.32,1465.25 2124.5,1451.5 Z M 2096.5,1482.5 C 2097.6,1483.6 2097.76,1484.93 2097,1486.5C 2094.28,1492.99 2091.95,1499.65 2090,1506.5C 2089.68,1519.09 2087.02,1531.09 2082,1542.5C 2080.26,1548.06 2078.92,1553.73 2078,1559.5C 2075.45,1561.6 2074.95,1564.1 2076.5,1567C 2075.55,1567.48 2074.55,1567.65 2073.5,1567.5C 2073.26,1569.47 2073.59,1571.3 2074.5,1573C 2071.69,1574.59 2071.02,1576.75 2072.5,1579.5C 2070.63,1580.8 2070.3,1582.3 2071.5,1584C 2068.7,1597.05 2065.53,1609.88 2062,1622.5C 2059.8,1626.32 2057.8,1630.32 2056,1634.5C 2055.26,1636.44 2055.42,1638.27 2056.5,1640C 2053.18,1642.32 2052.51,1645.32 2054.5,1649C 2054.05,1652.18 2053.55,1655.34 2053,1658.5C 2048.91,1670.9 2045.74,1683.57 2043.5,1696.5C 2042.5,1696.5 2041.5,1696.5 2040.5,1696.5C 2040.29,1698.14 2040.62,1699.64 2041.5,1701C 2038.38,1702.72 2037.72,1705.22 2039.5,1708.5C 2038.68,1709.39 2037.68,1709.72 2036.5,1709.5C 2036.83,1711.49 2037.16,1713.49 2037.5,1715.5C 2035.67,1720.95 2034.67,1726.62 2034.5,1732.5C 2031.74,1732.26 2029.57,1730.92 2028,1728.5C 2027.22,1726.71 2026.05,1725.21 2024.5,1724C 2025.52,1722.95 2025.68,1721.78 2025,1720.5C 2016.27,1716.9 2010.6,1710.56 2008,1701.5C 1999.63,1698.8 1994.3,1693.13 1992,1684.5C 1989.24,1683.02 1986.57,1681.35 1984,1679.5C 1983.33,1678.17 1982.67,1676.83 1982,1675.5C 1971.82,1664.95 1961.98,1654.12 1952.5,1643C 1969.62,1623.71 1986.95,1604.54 2004.5,1585.5C 2006.06,1584.93 2007.56,1584.26 2009,1583.5C 2009.36,1581.39 2010.03,1579.39 2011,1577.5C 2014.54,1574.3 2017.7,1570.8 2020.5,1567C 2024.33,1567.17 2026.17,1565.33 2026,1561.5C 2028.49,1559.19 2030.49,1556.52 2032,1553.5C 2034.22,1550.64 2037.05,1548.64 2040.5,1547.5C 2045.04,1539.12 2051.21,1532.12 2059,1526.5C 2062.23,1519.93 2066.9,1514.6 2073,1510.5C 2073.33,1509.5 2073.67,1508.5 2074,1507.5C 2082.5,1499.84 2090,1491.51 2096.5,1482.5 Z M 1850.5,1553.5 C 1856.68,1561.19 1863.51,1568.52 1871,1575.5C 1874.58,1581.25 1879.08,1586.25 1884.5,1590.5C 1884.29,1591.09 1883.96,1591.59 1883.5,1592C 1889.18,1597.2 1894.34,1602.7 1899,1608.5C 1904.71,1613.55 1909.71,1619.21 1914,1625.5C 1925.69,1637.86 1937.36,1650.19 1949,1662.5C 1951.25,1665.33 1953.25,1668.33 1955,1671.5C 1959.3,1674.8 1963.3,1678.46 1967,1682.5C 1966.17,1687.66 1968.33,1690.5 1973.5,1691C 2004.81,1725.31 2035.81,1759.98 2066.5,1795C 1974.17,1795.5 1881.83,1795.67 1789.5,1795.5C 1790.81,1788.16 1792.81,1780.99 1795.5,1774C 1795.77,1772.39 1796.6,1771.23 1798,1770.5C 1798.74,1768.56 1798.58,1766.73 1797.5,1765C 1799.41,1764.59 1800.41,1763.43 1800.5,1761.5C 1799.83,1757.67 1799.83,1754 1800.5,1750.5C 1803.5,1735.09 1807.33,1720.09 1812,1705.5C 1812.5,1703.19 1812.66,1700.86 1812.5,1698.5C 1813.5,1698.5 1814.5,1698.5 1815.5,1698.5C 1815.68,1696.41 1815.35,1694.41 1814.5,1692.5C 1815.32,1691.61 1816.32,1691.28 1817.5,1691.5C 1817.04,1687.89 1817.71,1684.56 1819.5,1681.5C 1818.83,1680.83 1818.17,1680.17 1817.5,1679.5C 1821.39,1665.11 1825.06,1650.61 1828.5,1636C 1828.36,1635.23 1828.02,1634.56 1827.5,1634C 1829.99,1632.68 1831.16,1630.51 1831,1627.5C 1833.55,1625.4 1834.05,1622.9 1832.5,1620C 1834.18,1619.65 1835.18,1618.65 1835.5,1617C 1835.09,1613.75 1835.09,1610.58 1835.5,1607.5C 1839.41,1590.67 1843.74,1574 1848.5,1557.5C 1848.39,1556.56 1848.06,1555.72 1847.5,1555C 1848.74,1554.77 1849.74,1554.27 1850.5,1553.5 Z M 1820.5,1582.5 C 1821.77,1583.08 1821.77,1583.74 1820.5,1584.5C 1819.54,1584.03 1819.54,1583.36 1820.5,1582.5 Z M 1818.5,1585.5 C 1819.15,1586.27 1819.48,1587.27 1819.5,1588.5C 1817.87,1593.39 1816.87,1598.39 1816.5,1603.5C 1812.86,1604.11 1811.86,1606.11 1813.5,1609.5C 1811.33,1612.96 1809.99,1616.46 1809.5,1620C 1810.17,1620.67 1810.83,1621.33 1811.5,1622C 1807.2,1639.82 1803.04,1657.65 1799,1675.5C 1798.26,1674.36 1797.43,1674.36 1796.5,1675.5C 1795.9,1678.3 1795.06,1680.97 1794,1683.5C 1793.31,1685.57 1793.48,1687.57 1794.5,1689.5C 1792.19,1690.97 1791.85,1692.8 1793.5,1695C 1789.46,1713.04 1784.96,1730.87 1780,1748.5C 1779.17,1749.33 1778.33,1750.17 1777.5,1751C 1776.91,1754.22 1776.91,1757.56 1777.5,1761C 1774.88,1772.16 1771.88,1783.33 1768.5,1794.5C 1724.17,1795.67 1679.84,1795.83 1635.5,1795C 1636.65,1793.12 1638.32,1792.28 1640.5,1792.5C 1640.37,1790.35 1640.87,1788.35 1642,1786.5C 1647.63,1779.86 1653.63,1773.53 1660,1767.5C 1663.29,1761.88 1667.62,1757.21 1673,1753.5C 1676.25,1748.24 1680.25,1743.58 1685,1739.5C 1695.26,1726.24 1706.26,1713.57 1718,1701.5C 1718.33,1700.5 1718.67,1699.5 1719,1698.5C 1726.36,1691.47 1733.36,1684.14 1740,1676.5C 1740.33,1675.5 1740.67,1674.5 1741,1673.5C 1745.2,1672.92 1747.53,1670.59 1748,1666.5C 1751.75,1659.75 1757.08,1654.75 1764,1651.5C 1764.33,1649.83 1764.67,1648.17 1765,1646.5C 1773.08,1638.42 1780.42,1629.75 1787,1620.5C 1792.41,1616.76 1796.74,1612.1 1800,1606.5C 1802.35,1603.98 1804.85,1601.65 1807.5,1599.5C 1811.18,1594.83 1814.84,1590.16 1818.5,1585.5 Z M 2419.5,1589.5 C 2430.55,1600.54 2441.21,1611.88 2451.5,1623.5C 2455.13,1629.96 2459.96,1635.29 2466,1639.5C 2468.7,1643.52 2471.36,1647.52 2474,1651.5C 2480.82,1656.81 2486.49,1663.14 2491,1670.5C 2497.43,1674.93 2502.43,1680.6 2506,1687.5C 2516.68,1697.68 2526.85,1708.35 2536.5,1719.5C 2543.51,1728.67 2551.01,1737.33 2559,1745.5C 2561.9,1751.73 2566.23,1756.73 2572,1760.5C 2579,1769.16 2586.33,1777.5 2594,1785.5C 2595.34,1788.02 2596.17,1790.69 2596.5,1793.5C 2598.43,1793.23 2600.1,1793.73 2601.5,1795C 2553.93,1795.17 2506.43,1795.67 2459,1796.5C 2448.58,1784.69 2437.91,1773.02 2427,1761.5C 2426.17,1759.5 2425.33,1757.5 2424.5,1755.5C 2416.35,1751.35 2410.68,1745.02 2407.5,1736.5C 2404.34,1735.84 2401.84,1734.18 2400,1731.5C 2398.02,1728.69 2395.86,1726.02 2393.5,1723.5C 2392.85,1721.88 2392.35,1720.22 2392,1718.5C 2388.57,1717.41 2386.07,1715.24 2384.5,1712C 2385.49,1705.53 2387.82,1699.7 2391.5,1694.5C 2391.07,1693.71 2390.74,1692.87 2390.5,1692C 2393.89,1675.13 2398.39,1658.63 2404,1642.5C 2406.3,1641.26 2406.8,1639.59 2405.5,1637.5C 2408.28,1636.33 2408.95,1634.49 2407.5,1632C 2410.84,1630.35 2411.5,1627.85 2409.5,1624.5C 2412.03,1612.57 2415.37,1600.91 2419.5,1589.5 Z M 2393.5,1616.5 C 2393.52,1614.97 2394.18,1614.47 2395.5,1615C 2394.96,1615.72 2394.29,1616.22 2393.5,1616.5 Z M 2393.5,1616.5 C 2393.31,1620.64 2392.64,1624.64 2391.5,1628.5C 2390.5,1628.5 2389.5,1628.5 2388.5,1628.5C 2388.29,1630.14 2388.62,1631.64 2389.5,1633C 2388.55,1633.48 2387.55,1633.65 2386.5,1633.5C 2386.36,1635.26 2386.69,1636.93 2387.5,1638.5C 2384.22,1640.06 2383.56,1642.4 2385.5,1645.5C 2382.25,1661.06 2377.25,1675.89 2370.5,1690C 2370.76,1691.26 2371.43,1692.26 2372.5,1693C 2370.84,1693.79 2369.17,1694.12 2367.5,1694C 2360.21,1685.04 2352.54,1676.37 2344.5,1668C 2354.21,1656.28 2364.71,1645.12 2376,1634.5C 2376.33,1633.5 2376.67,1632.5 2377,1631.5C 2382.42,1625.54 2387.92,1620.54 2393.5,1616.5 Z"/></g>
</svg>
